<?xml version="1.0" standalone="no"?>
<!DOCTYPE svg PUBLIC "-//W3C//DTD SVG 20010904//EN"
 "http://www.w3.org/TR/2001/REC-SVG-20010904/DTD/svg10.dtd">
<svg version="1.0" xmlns="http://www.w3.org/2000/svg"
 width="260.000000pt" height="260.000000pt" viewBox="0 0 260.000000 260.000000"
 preserveAspectRatio="xMidYMid meet">
<metadata>
Created by potrace 1.11, written by Peter Selinger 2001-2013
</metadata>
<g transform="translate(0.000000,260.000000) scale(0.100000,-0.100000)"
fill="#000000" stroke="none">
<path d="M2533 1948 c-17 -19 -18 -19 -31 -1 -11 15 -14 15 -21 4 -11 -18 -2
-43 12 -34 6 3 7 1 3 -6 -8 -13 16 -41 35 -41 7 0 21 7 31 17 17 15 18 15 18
-5 0 -41 16 -22 18 21 2 36 -1 44 -22 53 -21 10 -28 9 -43 -8z m37 -14 c0 -2
-7 -4 -15 -4 -8 0 -15 4 -15 10 0 5 7 7 15 4 8 -4 15 -8 15 -10z"/>
<path d="M2420 1934 c0 -8 -4 -13 -9 -9 -19 11 -20 -13 -1 -30 15 -14 20 -15
20 -4 0 11 2 11 11 -1 9 -12 10 -12 5 3 -3 10 -6 27 -6 38 0 10 -4 19 -10 19
-5 0 -10 -7 -10 -16z"/>
<path d="M2133 1794 c-8 -22 5 -44 27 -44 11 0 20 -4 20 -10 0 -5 7 -10 16
-10 11 0 14 -6 9 -20 -7 -23 10 -28 19 -5 3 8 11 15 17 15 8 0 8 -4 -1 -15 -7
-9 -10 -18 -6 -22 3 -3 6 -1 6 5 0 7 6 12 13 12 28 0 36 22 16 43 -10 11 -19
27 -19 34 0 7 -7 13 -15 13 -8 0 -15 3 -15 8 0 14 -81 11 -87 -4z"/>
<path d="M2345 1750 c-3 -5 -11 -7 -18 -5 -7 2 -24 -14 -39 -35 -21 -30 -24
-40 -13 -40 17 0 22 -21 28 -119 3 -43 1 -67 -4 -60 -5 8 -9 25 -10 39 -1 14
-5 -2 -10 -35 -5 -36 -5 -73 1 -94 6 -21 6 -40 0 -50 -8 -13 -9 -12 -10 8 0
33 -14 17 -15 -17 0 -17 -6 -28 -18 -30 -15 -3 -17 1 -11 24 5 20 4 25 -6 19
-9 -6 -11 0 -6 22 10 43 -19 53 -33 12 -13 -39 -29 -30 -23 12 3 22 1 30 -7
25 -6 -4 -11 -23 -11 -42 0 -24 -4 -33 -12 -28 -8 5 -9 -5 -5 -37 5 -36 4 -40
-6 -24 -6 12 -11 68 -11 138 1 64 -3 117 -8 117 -4 0 -9 -16 -9 -35 -1 -19 -2
-53 -3 -74 -1 -38 -16 -72 -16 -37 0 9 -5 14 -10 11 -6 -4 -8 -15 -5 -25 3
-10 1 -21 -5 -25 -5 -3 -10 -1 -10 6 0 9 -3 10 -11 2 -5 -5 -10 -19 -10 -29 0
-40 12 -127 18 -137 3 -6 1 -7 -5 -3 -7 4 -12 1 -12 -8 0 -9 -4 -16 -10 -16
-5 0 -10 7 -10 15 0 8 4 15 10 15 6 0 6 9 -1 26 -5 15 -7 35 -4 46 4 11 2 17
-5 16 -7 -2 -14 4 -15 12 -2 8 -6 28 -9 44 -10 54 -19 41 -12 -20 5 -48 4 -64
-9 -74 -18 -15 -19 -7 -4 22 10 18 9 20 -6 14 -13 -5 -16 -2 -13 12 7 24 -10
55 -23 46 -6 -3 -17 2 -25 12 -8 11 -14 15 -13 9 3 -23 -2 -45 -10 -45 -5 0
-5 16 0 39 10 44 8 131 -3 131 -8 0 -12 -31 -9 -58 1 -7 -5 -22 -14 -34 -8
-13 -15 -39 -15 -60 0 -20 -5 -40 -12 -44 -6 -4 -8 -3 -4 4 3 6 2 13 -4 17 -5
3 -10 23 -11 43 -2 69 -16 92 -16 27 0 -33 2 -62 6 -65 27 -22 42 -102 21
-115 -5 -3 -10 1 -10 9 0 8 -5 18 -12 22 -7 4 -8 3 -4 -4 4 -7 3 -12 -3 -12
-5 0 -12 8 -15 18 -2 9 -5 4 -4 -13 1 -80 -3 -110 -11 -96 -8 12 -12 12 -26
-2 -9 -10 -20 -15 -25 -12 -4 3 -10 -5 -13 -17 -5 -18 -9 -19 -21 -9 -14 11
-14 15 1 37 14 22 11 29 -10 25 -10 -2 -1 15 22 44 15 19 15 19 -3 5 -18 -14
-19 -13 -11 5 10 24 13 195 3 189 -4 -3 -10 -25 -14 -49 -9 -62 -20 -57 -17 7
2 39 0 48 -6 33 -9 -18 -10 -17 -10 8 -1 15 -5 27 -11 27 -5 0 -10 -4 -10 -8
0 -5 -7 -17 -16 -28 -14 -18 -15 -15 -10 34 6 60 -7 69 -22 15 -5 -21 -10 -30
-11 -20 -1 9 -6 17 -13 17 -9 0 -9 3 0 12 14 14 16 42 2 33 -6 -4 -11 6 -11
22 -1 23 -3 21 -12 -14 -11 -50 -27 -57 -27 -13 0 17 -4 30 -9 30 -6 0 -6 12
-1 30 5 17 5 30 0 30 -10 0 -20 -25 -20 -50 0 -27 -22 -30 -47 -7 -20 18 -23
18 -23 4 0 -18 -15 -23 -24 -8 -3 4 -2 22 3 38 5 17 5 46 1 64 -5 19 -8 25 -9
14 -1 -17 -3 -18 -12 -5 -8 12 -9 9 -5 -12 4 -16 0 -43 -8 -63 -11 -25 -12
-43 -5 -67 12 -42 12 -41 -5 -35 -9 4 -17 -1 -20 -11 -3 -9 -3 2 -2 26 3 31
-1 45 -11 49 -20 8 -28 -4 -14 -21 8 -10 9 -16 1 -21 -5 -3 -10 -1 -10 5 0 6
-5 8 -10 5 -5 -3 -10 0 -10 7 0 10 -3 9 -9 -2 -6 -8 -7 -18 -4 -23 3 -5 -4
-15 -15 -23 -11 -7 -23 -25 -26 -40 -6 -21 -9 -24 -21 -14 -29 24 -16 -17 15
-52 31 -34 34 -48 9 -57 -12 -4 -12 -2 0 12 11 15 11 17 -1 17 -8 0 -21 11
-28 25 -7 13 -16 23 -19 20 -4 -2 -5 12 -3 31 3 24 9 34 17 30 8 -3 15 5 18
20 4 20 2 22 -10 12 -13 -10 -14 -7 -9 18 3 16 8 46 12 67 4 20 4 37 1 37 -15
0 -39 -65 -34 -89 3 -15 2 -33 -3 -41 -17 -27 -4 94 14 135 10 22 13 35 7 29
-17 -15 -53 -125 -47 -140 3 -8 1 -14 -3 -14 -5 0 -7 -9 -4 -19 3 -11 0 -28
-6 -38 -8 -14 -10 -5 -11 45 0 34 -4 62 -10 62 -5 0 -10 8 -10 18 0 13 2 14 9
4 6 -10 10 -8 14 10 9 33 8 40 -3 33 -11 -7 -13 4 -10 49 3 50 -24 24 -36 -35
-7 -30 -13 -45 -14 -34 -1 11 -4 30 -5 43 -1 12 -6 26 -10 30 -4 4 -6 0 -5 -8
4 -25 -11 -59 -24 -54 -6 2 -16 -4 -23 -15 -10 -16 -9 -20 3 -25 10 -4 13 -2
8 7 -5 8 -2 7 9 -2 16 -12 16 -16 3 -36 -8 -12 -12 -32 -9 -44 4 -15 1 -21 -8
-19 -9 2 -15 -7 -17 -22 -2 -14 -12 -31 -22 -38 -24 -15 -26 -2 -5 39 11 21
13 34 6 48 -6 10 -8 21 -6 25 3 3 0 2 -6 -2 -5 -5 -12 -26 -15 -48 -5 -41 -10
-51 -21 -40 -4 4 -2 16 5 26 7 12 8 20 2 20 -13 0 -13 41 0 76 17 43 3 40 -18
-5 -11 -23 -16 -39 -11 -35 12 7 11 -36 -2 -75 -12 -33 -29 -42 -29 -15 0 10
-5 14 -15 10 -13 -5 -14 -2 -4 16 9 17 13 18 21 7 8 -11 9 -10 4 4 -3 10 3 44
13 75 20 59 24 95 9 86 -4 -3 -8 -13 -8 -23 0 -33 -30 -103 -52 -122 -12 -11
-23 -17 -25 -15 -4 4 -4 32 0 148 1 42 -1 71 -5 65 -5 -8 -8 -4 -8 9 0 30 -11
36 -26 16 -12 -15 -13 -15 -14 8 0 19 -2 22 -9 11 -6 -9 -6 -22 1 -34 5 -10 7
-21 4 -24 -3 -3 1 -12 9 -20 12 -11 12 -18 3 -33 -15 -24 -28 -16 -28 18 0 15
-7 36 -15 46 -13 17 -15 17 -15 4 0 -9 4 -19 9 -23 6 -3 8 -18 7 -33 -2 -15
-4 -33 -5 -41 -1 -9 -10 -4 -26 13 -14 15 -25 23 -25 18 0 -13 47 -62 60 -62
6 0 13 7 16 15 12 30 19 14 20 -44 2 -48 -1 -58 -13 -54 -20 8 -49 -27 -45
-55 5 -32 -5 -53 -21 -46 -15 5 -12 50 5 71 5 7 6 18 2 24 -5 8 -3 9 6 4 10
-6 12 -4 7 9 -6 14 -3 17 9 12 13 -5 15 -1 10 19 -6 24 -5 25 13 15 17 -8 19
-8 15 4 -10 26 -38 23 -51 -4 -11 -25 -11 -25 -12 9 -1 39 -10 38 -13 -2 -3
-33 -22 -30 -26 3 l-4 24 -14 -24 c-13 -25 -13 -24 -11 12 1 20 -2 37 -8 38
-13 2 -23 -34 -24 -90 -1 -33 -4 -41 -11 -30 -9 13 -10 13 -10 0 -1 -12 -4
-11 -15 4 -22 30 -29 12 -10 -26 21 -40 44 -132 45 -175 0 -38 9 -65 20 -58 5
3 11 -8 15 -25 4 -16 10 -30 15 -30 13 0 20 44 8 51 -6 4 -7 12 -3 19 5 9 4
11 -3 6 -19 -11 -14 3 9 27 l21 22 -3 -35 c-1 -19 -1 -60 0 -90 2 -42 4 -50
11 -34 10 25 32 42 28 22 -2 -8 7 -13 22 -13 21 0 26 -6 34 -44 7 -33 17 -48
38 -60 16 -9 31 -26 35 -39 4 -17 10 -21 22 -16 9 4 31 7 49 7 20 0 32 5 32
14 0 29 41 -12 51 -52 6 -22 12 -47 15 -56 3 -10 20 -19 45 -23 38 -6 40 -8
37 -38 -2 -20 2 -33 11 -36 8 -3 11 0 7 7 -4 6 -2 11 3 11 6 0 11 -4 11 -9 0
-10 118 -2 202 15 21 4 30 0 40 -18 13 -22 26 -27 94 -30 19 -1 30 -7 28 -13
-5 -13 37 -35 65 -35 11 0 24 -12 31 -29 14 -35 43 -45 64 -22 16 18 56 20
166 7 59 -7 193 11 184 25 -7 12 48 8 64 -4 6 -5 12 -6 12 -2 0 4 6 3 13 -3
13 -11 46 -10 65 2 8 4 12 1 12 -10 0 -14 2 -14 16 -3 9 7 18 9 22 3 4 -5 25
-18 47 -29 22 -11 43 -24 46 -29 4 -5 28 -10 55 -12 26 -2 52 -9 57 -16 7 -10
10 -10 14 0 7 17 32 15 39 -3 4 -8 10 -12 15 -9 5 3 7 10 4 15 -3 5 5 20 18
34 20 22 27 24 50 16 19 -7 27 -7 27 0 0 6 7 9 15 5 8 -3 18 1 22 8 5 7 18 18
31 25 20 11 22 19 22 102 0 50 -5 100 -11 111 -8 15 -8 19 0 14 17 -11 14 56
-4 81 -10 15 -12 22 -4 25 9 3 9 10 0 26 -13 25 -31 29 -31 7 0 -8 -4 -15 -9
-15 -10 0 -5 58 7 74 9 12 9 23 -1 46 -3 8 -7 24 -9 35 -4 23 -47 34 -49 13
-1 -7 -2 -22 -3 -33 -1 -11 -3 -35 -4 -54 -1 -19 -5 -31 -9 -28 -10 11 -13 57
-3 57 5 0 8 9 7 20 -1 11 -5 20 -9 20 -4 0 -5 7 -2 15 3 8 -1 22 -10 30 -15
15 -16 15 -16 -2 0 -25 -11 -39 -36 -47 -16 -5 -23 0 -34 28 -13 34 -33 38
-53 12 -5 -6 -6 -2 -2 9 4 11 14 36 21 56 9 24 12 74 10 150 -2 63 -4 148 -6
189 -1 41 -4 69 -7 63 -8 -22 -21 -14 -19 12 1 24 25 40 52 34 32 -6 56 4 66
27 10 22 10 28 -5 39 -10 7 -27 11 -37 8 -11 -3 -20 0 -20 6 0 13 -17 15 -25
1z m-1015 -240 c0 -5 -2 -10 -4 -10 -3 0 -8 5 -11 10 -3 6 -1 10 4 10 6 0 11
-4 11 -10z m-290 -14 c0 -3 -4 -8 -10 -11 -5 -3 -10 -1 -10 4 0 6 5 11 10 11
6 0 10 -2 10 -4z m-39 -59 c-8 -8 -11 -8 -11 0 0 6 -3 20 -7 30 -7 17 -6 17
11 0 14 -14 16 -21 7 -30z m449 29 c0 -8 -4 -18 -10 -21 -5 -3 -10 3 -10 14 0
12 5 21 10 21 6 0 10 -6 10 -14z m-402 -46 c1 -28 -2 -50 -8 -50 -11 0 -14 83
-3 93 3 4 7 7 7 7 1 0 3 -22 4 -50z m312 35 c0 -8 -4 -15 -10 -15 -5 0 -10 7
-10 15 0 8 5 15 10 15 6 0 10 -7 10 -15z m-771 -73 l-13 -27 -4 33 c-2 19 0
41 3 50 6 15 9 14 18 -6 7 -16 7 -29 -4 -50z m1746 28 c-4 -17 -9 -29 -12 -26
-3 2 -2 19 2 36 4 17 9 29 12 26 3 -2 2 -19 -2 -36z m-840 -18 c-2 -20 -4 -40
-4 -44 -1 -5 -5 -8 -9 -8 -7 0 -8 34 -4 83 1 10 6 16 11 12 6 -3 8 -22 6 -43z
m-265 22 c0 -8 -4 -12 -10 -9 -5 3 -10 10 -10 16 0 5 5 9 10 9 6 0 10 -7 10
-16z m81 -7 c-10 -9 -11 -8 -5 6 3 10 9 15 12 12 3 -3 0 -11 -7 -18z m216 -29
c-3 -8 -6 -5 -6 6 -1 11 2 17 5 13 3 -3 4 -12 1 -19z m678 12 c3 -5 1 -10 -4
-10 -6 0 -11 5 -11 10 0 6 2 10 4 10 3 0 8 -4 11 -10z m-1665 -36 c0 -8 -4
-12 -10 -9 -5 3 -10 13 -10 21 0 8 5 12 10 9 6 -3 10 -13 10 -21z m1007 -6
c-3 -7 -5 -2 -5 12 0 14 2 19 5 13 2 -7 2 -19 0 -25z m-785 0 c-7 -7 -12 -8
-12 -2 0 14 12 26 19 19 2 -3 -1 -11 -7 -17z m1308 2 c0 -5 -5 -10 -11 -10 -5
0 -7 5 -4 10 3 6 8 10 11 10 2 0 4 -4 4 -10z m114 -16 c3 -8 2 -12 -4 -9 -6 3
-10 10 -10 16 0 14 7 11 14 -7z m-1591 -9 c-3 -9 -8 -14 -10 -11 -3 3 -2 9 2
15 9 16 15 13 8 -4z m335 -10 c1 -13 -3 -27 -10 -31 -7 -5 -8 -3 -3 6 4 7 2
16 -5 20 -7 4 -9 13 -6 19 12 18 22 13 24 -14z m927 -31 c-5 -51 -15 -55 -15
-6 0 23 4 42 9 42 5 0 8 -16 6 -36z m-242 -17 c-4 -20 -8 -25 -14 -16 -4 7 -3
21 3 32 13 25 17 18 11 -16z m-53 9 c0 -2 -8 -10 -17 -17 -16 -13 -17 -12 -4
4 13 16 21 21 21 13z m-944 -43 c-11 -11 -17 4 -9 23 7 18 8 18 11 1 2 -10 1
-21 -2 -24z m-26 5 c0 -13 -5 -30 -10 -38 -8 -11 -10 -5 -8 23 2 39 18 53 18
15z m1481 -11 c-8 -8 -11 -7 -11 4 0 20 13 34 18 19 3 -7 -1 -17 -7 -23z m-73
-2 c-3 -3 -9 2 -12 12 -6 14 -5 15 5 6 7 -7 10 -15 7 -18z m-444 -9 c-6 -16
-24 -23 -24 -8 0 10 22 33 27 28 2 -2 1 -11 -3 -20z m400 -10 c-3 -15 -8 -25
-11 -23 -2 3 -1 17 3 31 3 15 8 25 11 23 2 -3 1 -17 -3 -31z m271 24 c-3 -5
-11 -10 -16 -10 -6 0 -7 5 -4 10 3 6 11 10 16 10 6 0 7 -4 4 -10z m57 -52 c-5
-34 -9 -33 -15 3 -3 16 0 26 7 26 8 0 10 -11 8 -29z m-95 0 c-3 -8 -6 -5 -6 6
-1 11 2 17 5 13 3 -3 4 -12 1 -19z m-32 -28 c-4 -12 -9 -19 -12 -17 -3 3 -2
15 2 27 4 12 9 19 12 17 3 -3 2 -15 -2 -27z m-208 -2 c-3 -8 -6 -5 -6 6 -1 11
2 17 5 13 3 -3 4 -12 1 -19z m93 7 c0 -8 -4 -15 -10 -15 -5 0 -10 7 -10 15 0
8 5 15 10 15 6 0 10 -7 10 -15z m-170 -10 c-7 -9 -15 -13 -19 -10 -3 3 1 10 9
15 21 14 24 12 10 -5z m130 11 c0 -2 -8 -10 -17 -17 -16 -13 -17 -12 -4 4 13
16 21 21 21 13z m-76 -51 c7 -39 7 -39 -9 -17 -10 13 -14 30 -10 43 9 26 11
23 19 -26z m313 23 c-3 -8 -6 -5 -6 6 -1 11 2 17 5 13 3 -3 4 -12 1 -19z
m-347 -31 c0 -4 -6 -2 -14 5 -8 7 -12 17 -9 22 5 8 23 -12 23 -27z m110 13 c0
-5 -4 -10 -10 -10 -5 0 -10 5 -10 10 0 6 5 10 10 10 6 0 10 -4 10 -10z m38
-45 c-3 -3 -9 2 -12 12 -6 14 -5 15 5 6 7 -7 10 -15 7 -18z m-38 -25 c0 -5 -5
-10 -11 -10 -5 0 -7 5 -4 10 3 6 8 10 11 10 2 0 4 -4 4 -10z m266 -46 c2 -24
1 -25 -12 -12 -8 8 -12 22 -8 32 8 22 16 14 20 -20z"/>
<path d="M2458 1698 c-29 -32 -33 -38 -20 -38 16 1 64 52 56 60 -5 5 -21 -5
-36 -22z"/>
<path d="M811 1654 c0 -11 3 -14 6 -6 3 7 2 16 -1 19 -3 4 -6 -2 -5 -13z"/>
<path d="M860 1655 c0 -11 -3 -31 -6 -45 -4 -20 -2 -18 12 8 13 25 14 36 5 45
-8 8 -11 6 -11 -8z"/>
<path d="M1036 1653 c-6 -14 -5 -15 5 -6 7 7 10 15 7 18 -3 3 -9 -2 -12 -12z"/>
<path d="M806 1608 c-3 -13 -6 -39 -6 -58 1 -45 15 -22 24 38 6 44 -7 59 -18
20z"/>
<path d="M901 1604 c0 -11 3 -14 6 -6 3 7 2 16 -1 19 -3 4 -6 -2 -5 -13z"/>
<path d="M620 1605 c1 -6 7 -21 16 -35 l15 -25 -7 25 c-7 26 -24 52 -24 35z"/>
<path d="M1081 1594 c0 -11 3 -14 6 -6 3 7 2 16 -1 19 -3 4 -6 -2 -5 -13z"/>
<path d="M1290 1593 c0 -4 5 -15 10 -23 8 -13 10 -13 10 2 0 9 -4 20 -10 23
-5 3 -10 3 -10 -2z"/>
<path d="M2426 1558 c-3 -13 -7 -52 -8 -88 -1 -54 -2 -57 -5 -20 -7 82 -22 65
-22 -26 0 -115 7 -152 31 -165 16 -9 24 -6 42 10 17 16 25 18 34 9 6 -6 15 -8
19 -4 12 12 14 168 2 182 -6 7 -8 18 -5 23 8 12 -3 61 -13 61 -3 0 -5 -44 -4
-97 1 -83 0 -91 -8 -53 -5 25 -13 79 -18 120 -8 74 -10 70 -17 -44 -6 -90 -13
-79 -12 18 1 89 -5 115 -16 74z m39 -238 c-4 -12 -9 -19 -12 -17 -3 3 -2 15 2
27 4 12 9 19 12 17 3 -3 2 -15 -2 -27z"/>
<path d="M252 1520 c0 -14 2 -19 5 -12 2 6 2 18 0 25 -3 6 -5 1 -5 -13z"/>
<path d="M300 1531 c0 -20 12 -41 21 -35 5 3 6 -2 3 -10 -3 -9 -1 -16 5 -16
18 0 13 28 -9 50 -11 11 -20 16 -20 11z"/>
<path d="M151 1514 c0 -11 3 -14 6 -6 3 7 2 16 -1 19 -3 4 -6 -2 -5 -13z"/>
<path d="M1570 1526 c0 -2 7 -7 16 -10 8 -3 12 -2 9 4 -6 10 -25 14 -25 6z"/>
<path d="M511 1494 c0 -11 3 -14 6 -6 3 7 2 16 -1 19 -3 4 -6 -2 -5 -13z"/>
<path d="M792 1490 c0 -14 2 -19 5 -12 2 6 2 18 0 25 -3 6 -5 1 -5 -13z"/>
<path d="M268 1483 c-19 -5 -24 -18 -10 -27 5 -3 16 4 25 15 17 19 16 20 -15
12z"/>
<path d="M150 1465 c0 -6 4 -15 9 -20 5 -6 11 -19 14 -30 5 -20 5 -19 6 1 0
11 -6 29 -14 40 -8 10 -15 14 -15 9z"/>
<path d="M224 1455 c-4 -8 -4 -25 -1 -36 4 -15 2 -19 -9 -15 -8 3 -14 2 -14
-3 0 -5 9 -11 19 -14 13 -3 22 3 30 19 8 18 8 23 -2 21 -7 -1 -11 7 -9 21 4
25 -6 30 -14 7z"/>
<path d="M283 1445 c-3 -9 -3 -18 -1 -21 3 -3 8 4 11 16 6 23 -1 27 -10 5z"/>
<path d="M305 1430 c-8 -16 -15 -33 -14 -37 1 -4 1 -15 0 -23 -1 -13 -3 -13
-12 0 -9 13 -10 13 -6 -2 3 -9 1 -19 -6 -21 -7 -2 -9 -8 -5 -12 4 -4 18 6 32
21 l24 29 -8 -45 c-8 -42 -5 -70 4 -39 13 46 21 119 14 119 -5 0 -6 9 -3 20 9
30 -2 24 -20 -10z"/>
<path d="M1650 1441 c0 -5 5 -13 10 -16 6 -3 10 -2 10 4 0 5 -4 13 -10 16 -5
3 -10 2 -10 -4z"/>
<path d="M1692 1408 c-16 -16 -15 -25 2 -25 8 0 14 9 13 19 -2 21 0 21 -15 6z"/>
<path d="M179 1373 c-4 -25 4 -59 15 -68 7 -5 16 -17 19 -25 4 -8 5 2 3 22 -3
23 0 38 7 41 8 2 6 9 -5 20 -17 18 -37 22 -39 10z"/>
<path d="M429 1363 c-5 -39 -2 -67 7 -70 13 -5 17 64 4 72 -6 3 -10 3 -11 -2z"/>
<path d="M124 1339 c-7 -12 15 -31 28 -23 9 6 -1 34 -12 34 -5 0 -12 -5 -16
-11z"/>
<path d="M1675 1330 c-4 -12 -5 -24 -2 -27 3 -2 8 5 12 17 4 12 5 24 2 27 -3
2 -8 -5 -12 -17z"/>
<path d="M340 1269 c0 -17 4 -28 10 -24 6 3 10 17 10 31 0 13 -4 24 -10 24 -5
0 -10 -14 -10 -31z"/>
<path d="M1675 1270 c-3 -5 -1 -10 4 -10 6 0 11 5 11 10 0 6 -2 10 -4 10 -3 0
-8 -4 -11 -10z"/>
<path d="M436 1255 c4 -8 8 -15 10 -15 2 0 4 7 4 15 0 8 -4 15 -10 15 -5 0 -7
-7 -4 -15z"/>
<path d="M240 1251 c0 -5 -3 -18 -6 -28 -6 -16 -5 -16 9 2 19 23 21 35 7 35
-5 0 -10 -4 -10 -9z"/>
<path d="M300 1239 c0 -5 5 -7 10 -4 6 3 10 8 10 11 0 2 -4 4 -10 4 -5 0 -10
-5 -10 -11z"/>
<path d="M482 1100 c0 -14 2 -19 5 -12 2 6 2 18 0 25 -3 6 -5 1 -5 -13z"/>
</g>
</svg>
